<?xml version="1.0" encoding="utf-8"?><svg viewBox="0 0 36 36" xmlns="http://www.w3.org/2000/svg" xmlns:xlink="http://www.w3.org/1999/xlink"><style>:root>svg{display:none}:root>svg:target{display:block}</style><svg viewBox="0 0 20 20" id="clock" xmlns="http://www.w3.org/2000/svg"><path d="M10 0a10 10 0 100 20 10 10 0 000-20zm0 18a8 8 0 110-16 8 8 0 010 16zm3.1-7.37L11 9.42V5a1 1 0 00-2 0v5.12a.65.65 0 00.05.2c.02.06.047.116.08.17.027.057.06.11.1.16l.16.13.09.09 2.6 1.5a1 1 0 00.5.13 1 1 0 00.5-1.87h.02z"/></svg><svg viewBox="0 0 16 20" id="dogovor" xmlns="http://www.w3.org/2000/svg"><path fill-rule="evenodd" clip-rule="evenodd" d="M7 14.5a1 1 0 011-1h3a1 1 0 110 2H8a1 1 0 01-1-1zm0-3a1 1 0 011-1h3a1 1 0 110 2H8a1 1 0 01-1-1zm0-3a1 1 0 011-1h3a1 1 0 110 2H8a1 1 0 01-1-1z"/><path d="M6 8.5a1 1 0 11-2 0 1 1 0 012 0z"/><path fill-rule="evenodd" clip-rule="evenodd" d="M0 3a2 2 0 012-2h3a1 1 0 010 2H2v15h12V3h-3a1 1 0 110-2h3a2 2 0 012 2v15a2 2 0 01-2 2H2a2 2 0 01-2-2V3z"/><path d="M6 11.5a1 1 0 11-2 0 1 1 0 012 0zm0 3a1 1 0 11-2 0 1 1 0 012 0z"/><path fill-rule="evenodd" clip-rule="evenodd" d="M4 1a1 1 0 011-1h6a1 1 0 011 1v3a1 1 0 01-1 1H5a1 1 0 01-1-1V1zm2 1v1h4V2H6z"/></svg><svg viewBox="0 0 20 16" id="email" xmlns="http://www.w3.org/2000/svg"><path fill-rule="evenodd" clip-rule="evenodd" d="M0 2a2 2 0 012-2h16a2 2 0 012 2v12a2 2 0 01-2 2H2a2 2 0 01-2-2V2zm3.519 0L10 7.671 16.481 2H3.52zM18 3.329l-7.341 6.424a1 1 0 01-1.318 0L2 3.329V14h16V3.329z"/></svg><svg viewBox="0 0 18 18" id="phone" xmlns="http://www.w3.org/2000/svg"><path fill-rule="evenodd" clip-rule="evenodd" d="M2.194 2.333c-.254 1.76-.505 6.51 3.229 10.244 3.733 3.734 8.484 3.483 10.244 3.229v-3.6l-3.697-.616-.558 1.116a.833.833 0 01-.745.46v-.833l-.001.834h-.017a1.193 1.193 0 01-.113-.005 3.685 3.685 0 01-.274-.03 5.186 5.186 0 01-.9-.216c-.734-.245-1.683-.725-2.618-1.66-.935-.935-1.415-1.884-1.66-2.617a5.185 5.185 0 01-.216-.901 3.678 3.678 0 01-.035-.387v-.016c0-.001 0-.002.834-.002h-.834c0-.278.14-.538.371-.693l1.938-1.292-1.206-3.015H2.194zm4.367 5.405l1.505-1.003A1.667 1.667 0 008.69 4.73L7.483 1.714A1.667 1.667 0 005.936.667H2.15c-.757 0-1.47.526-1.594 1.347-.283 1.869-.668 7.387 3.687 11.742 4.355 4.355 9.873 3.97 11.742 3.687.821-.124 1.347-.837 1.347-1.594v-3.643c0-.815-.589-1.51-1.392-1.644l-3.697-.616a1.667 1.667 0 00-1.765.899l-.288.577a3.898 3.898 0 01-.303-.088c-.516-.172-1.234-.525-1.965-1.257-.732-.731-1.085-1.449-1.257-1.966a3.821 3.821 0 01-.105-.373z"/></svg><svg viewBox="0 0 16 20" id="prise" xmlns="http://www.w3.org/2000/svg"><path fill-rule="evenodd" clip-rule="evenodd" d="M0 2a2 2 0 012-2h8a1 1 0 01.707.293l5 5A1 1 0 0116 6v12a2 2 0 01-2 2H2a2 2 0 01-2-2V2zm13.586 4H10V2.414L13.586 6zM8 2v5a1 1 0 001 1h5v10H2V2h6zm-4 9a1 1 0 011-1h6a1 1 0 110 2H5a1 1 0 01-1-1zm0 4a1 1 0 011-1h6a1 1 0 110 2H5a1 1 0 01-1-1z"/></svg><svg viewBox="0 0 36 36" id="telegram" xmlns="http://www.w3.org/2000/svg"><path d="M18 36c9.941 0 18-8.059 18-18S27.941 0 18 0 0 8.059 0 18s8.059 18 18 18z"/><path fill-rule="evenodd" clip-rule="evenodd" d="M8.148 17.81c5.247-2.286 8.746-3.793 10.497-4.522 4.999-2.079 6.038-2.44 6.715-2.452.148-.002.481.034.697.21.182.147.232.347.256.487.024.14.054.46.03.709-.27 2.846-1.443 9.753-2.039 12.94-.252 1.35-.75 1.802-1.23 1.846-1.045.096-1.84-.69-2.852-1.354-1.584-1.039-2.479-1.685-4.017-2.699-1.777-1.17-.625-1.815.388-2.867.265-.275 4.87-4.464 4.96-4.844.011-.047.021-.225-.084-.318-.105-.094-.26-.062-.373-.036-.158.036-2.69 1.709-7.592 5.018-.718.493-1.37.734-1.952.721-.643-.014-1.879-.363-2.798-.662-1.127-.366-2.023-.56-1.945-1.182.04-.325.487-.656 1.339-.995z"/><defs><linearGradient id="fpaint0_linear_2_257" x1="18" y1="0" x2="18" y2="35.733" gradientUnits="userSpaceOnUse"><stop stop-color="#2CA4E0"/><stop offset="1" stop-color="#0D83BF"/></linearGradient></defs></svg><svg viewBox="0 0 34 34" id="whatsapp" xmlns="http://www.w3.org/2000/svg"><path d="M0 16.32C0 8.627 0 4.78 2.39 2.39 4.78 0 8.627 0 16.32 0h1.36c7.693 0 11.54 0 13.93 2.39C34 4.78 34 8.627 34 16.32v1.36c0 7.693 0 11.54-2.39 13.93C29.22 34 25.373 34 17.68 34h-1.36c-7.693 0-11.54 0-13.93-2.39C0 29.22 0 25.373 0 17.68v-1.36z"/><path d="M12.512 23.787l.312.154a8.205 8.205 0 004.202 1.128c4.566 0 8.301-3.692 8.301-8.205a8.187 8.187 0 00-2.438-5.794 8.29 8.29 0 00-5.863-2.41c-4.565 0-8.3 3.692-8.249 8.256 0 1.538.467 3.025 1.245 4.307l.208.308-.83 3.025 3.112-.769z"/><path d="M23.77 10.25c-1.763-1.796-4.202-2.77-6.692-2.77-5.292 0-9.546 4.256-9.494 9.436 0 1.64.467 3.23 1.245 4.666L7.48 26.453l5.032-1.281c1.401.769 2.958 1.128 4.514 1.128 5.24 0 9.494-4.256 9.494-9.436a9.252 9.252 0 00-2.75-6.615zm-6.692 14.46c-1.4 0-2.802-.359-3.995-1.077l-.311-.154-3.01.77.779-2.923-.207-.308C8.05 17.378 9.14 12.557 12.876 10.3c3.735-2.256 8.56-1.179 10.843 2.513 2.282 3.692 1.193 8.461-2.542 10.718-1.194.769-2.646 1.18-4.1 1.18zm4.566-5.692l-.571-.256s-.83-.36-1.35-.616c-.051 0-.103-.051-.155-.051a.756.756 0 00-.363.103s-.052.05-.778.871a.286.286 0 01-.26.154h-.052a.396.396 0 01-.207-.102l-.26-.103c-.57-.256-1.089-.564-1.504-.974-.104-.103-.26-.205-.363-.308-.363-.359-.726-.77-.986-1.23l-.052-.103c-.052-.051-.052-.103-.103-.205 0-.103 0-.205.051-.257 0 0 .208-.256.364-.41.103-.103.155-.256.259-.359.104-.154.156-.359.104-.513-.052-.256-.675-1.64-.83-1.948-.104-.154-.208-.206-.363-.257h-.571c-.104 0-.208.051-.312.051l-.051.052c-.104.051-.208.154-.312.205-.103.102-.155.205-.26.308a2.596 2.596 0 00-.57 1.59c0 .41.104.82.26 1.179l.052.154a8.547 8.547 0 001.92 2.615l.207.205c.155.154.311.256.415.41a9.307 9.307 0 003.735 1.949c.156.051.363.051.519.102h.519c.26 0 .57-.102.778-.205.156-.102.26-.102.363-.205l.104-.102c.104-.103.207-.154.311-.257.104-.102.208-.205.26-.307.103-.206.155-.462.207-.718v-.36s-.052-.05-.155-.102z"/><defs><linearGradient id="gpaint0_linear_2_262" x1="17" y1="0" x2="17" y2="34" gradientUnits="userSpaceOnUse"><stop stop-color="#42E760"/><stop offset=".766" stop-color="#29CB4A"/></linearGradient></defs></svg></svg>